<?xml version="1.0" standalone="no"?><svg xmlns="http://www.w3.org/2000/svg" viewBox="0 0 1440 320"><path fill="#3B32C0" fill-opacity="1" d="M0,288L40,277.3C80,267,160,245,240,213.3C320,181,400,139,480,122.7C560,107,640,117,720,106.7C800,96,880,64,960,90.7C1040,117,1120,203,1200,240C1280,277,1360,267,1400,261.3L1440,256L1440,320L1400,320C1360,320,1280,320,1200,320C1120,320,1040,320,960,320C880,320,800,320,720,320C640,320,560,320,480,320C400,320,320,320,240,320C160,320,80,320,40,320L0,320Z"></path></svg>