<?xml version="1.0" encoding="UTF-8"?>
<svg version="1.1" xmlns="http://www.w3.org/2000/svg" width="450" height="150">
<path d="M0 0 C0 0.66 0 1.32 0 2 C0.70511719 2.04382812 1.41023438 2.08765625 2.13671875 2.1328125 C6.08761413 3.32940019 8.17200485 5.86434197 10.8125 8.875 C11.31458984 9.41769531 11.81667969 9.96039063 12.33398438 10.51953125 C16 14.59953231 16 14.59953231 16 18 C16.66 18 17.32 18 18 18 C18.99 21.3 19.98 24.6 21 28 C23.10683183 24.83975226 24.4799582 21.74033245 25.75 18.1875 C27.77993444 12.95983101 30.65684212 8.60754181 35 5 C35.99 5 36.98 5 38 5 C38 4.34 38 3.68 38 3 C39.24735567 2.3490741 40.49801832 1.70448331 41.75 1.0625 C42.79414063 0.52302734 42.79414063 0.52302734 43.859375 -0.02734375 C48.47829861 -2.12608824 52.8540142 -2.18289359 57.875 -2.1875 C58.91720703 -2.20586914 58.91720703 -2.20586914 59.98046875 -2.22460938 C64.37692393 -2.23702874 67.91709235 -1.61908407 72 0 C72 0.66 72 1.32 72 2 C72.56074219 2.09152344 73.12148438 2.18304688 73.69921875 2.27734375 C81.62897642 4.76801466 87.87712369 12.77279107 93 19 C94.88657383 21.23709273 96.78610554 23.4629987 98.6875 25.6875 C99.19659912 26.28449707 99.70569824 26.88149414 100.23022461 27.49658203 C104.34116911 32.29236364 108.58016925 36.9560836 112.90307617 41.5612793 C115.25955898 44.07821742 117.54521627 46.62666912 119.734375 49.2890625 C123.08082214 53.29325959 124.62194552 53.86445366 129.8125 54.375 C134.2558428 54.23407308 137.70001272 53.02935341 141 50 C142.40054412 47.6806592 143.14913379 45.60264959 144 43 C144.66 43 145.32 43 146 43 C145.84359296 36.85746904 144.72058383 32.76222018 141.15625 27.7265625 C140 26 140 26 139 23 C137.7934375 22.7834375 137.7934375 22.7834375 136.5625 22.5625 C134 22 134 22 133 21 C129.27775401 20.70613847 128.22213757 20.85190829 125 23 C124.01 23 123.02 23 122 23 C121.67 23.99 121.34 24.98 121 26 C120.34 26 119.68 26 119 26 C118.690625 26.639375 118.38125 27.27875 118.0625 27.9375 C117 30 117 30 116 31 C113.66796875 31.296875 113.66796875 31.296875 111 31 C109.05078125 29.390625 109.05078125 29.390625 107.3125 27.25 C106.73113281 26.55390625 106.14976562 25.8578125 105.55078125 25.140625 C104.11150137 23.15391121 103.01796796 21.22649151 102 19 C101.34 19 100.68 19 100 19 C100.72060458 12.87486109 104.23308459 7.81353233 109 4 C112.75 2.75 112.75 2.75 116 2 C116 1.34 116 0.68 116 0 C120.9882251 -1.61988753 125.20019296 -2.27190003 130.5 -2.25 C131.7478125 -2.25515625 132.995625 -2.2603125 134.28125 -2.265625 C138.19704225 -1.98592555 141.2852333 -1.20634176 145 0 C145 0.66 145 1.32 145 2 C146.65 2.33 148.3 2.66 150 3 C150 3.66 150 4.32 150 5 C150.99 5 151.98 5 153 5 C161.90673202 14.82644891 167.36376146 25.44747743 167.125 38.9375 C167.11597656 39.62134766 167.10695313 40.30519531 167.09765625 41.00976562 C167.07438958 42.67333287 167.03853167 44.33671631 167 46 C166.34 46 165.68 46 165 46 C164.938125 47.27875 164.87625 48.5575 164.8125 49.875 C164.21438219 55.57524395 161.78983506 60.06888932 159 65 C158.34 65 157.68 65 157 65 C156.74863281 65.59425781 156.49726563 66.18851562 156.23828125 66.80078125 C153.68912744 71.32814275 148.9161158 74.44113289 144 75.875 C143.34 75.91625 142.68 75.9575 142 76 C142 76.66 142 77.32 142 78 C132.25774252 80.21496797 122.79460232 79.97724572 114 75 C107.63222544 70.85622578 102.8026309 65.82165671 98 60 C96.13394452 57.78401394 94.25589637 55.5783962 92.375 53.375 C91.61425171 52.48240479 91.61425171 52.48240479 90.83813477 51.57177734 C86.53399104 46.55328342 82.07618051 41.69193363 77.54052734 36.88232422 C74.36652048 33.51013152 71.33219882 30.06617182 68.39624023 26.48364258 C65.20539062 23.09305102 60.5997901 21.22438001 56 21 C50.57591805 22.5497377 48.08005878 24.54375406 44.9453125 29.18359375 C42.95540333 33.00717956 42.88672071 36.48453933 42.9375 40.75 C42.94652344 41.73484375 42.95554687 42.7196875 42.96484375 43.734375 C42.97644531 44.48203125 42.98804688 45.2296875 43 46 C44.485 46.495 44.485 46.495 46 47 C46.4021875 47.928125 46.4021875 47.928125 46.8125 48.875 C48.60043737 52.07446688 50.60265153 52.74172279 54 54 C58.41493579 54.7299595 61.2471919 54.39088113 65.25 52.3125 C67.91985068 50.06739829 69.96167147 47.82230104 72 45 C76.84516908 45.42169322 78.69018931 47.32846095 81.8125 50.9375 C82.60269531 51.83339844 83.39289063 52.72929688 84.20703125 53.65234375 C86 56 86 56 86 58 C86.66 58 87.32 58 88 58 C87.46972205 62.5073626 85.80388725 65.4539073 83 69 C82.01 69 81.02 69 80 69 C79.77054688 69.60457031 79.54109375 70.20914063 79.3046875 70.83203125 C77.63303562 73.60977614 76.03778998 74.31753795 73.125 75.6875 C72.26132812 76.10386719 71.39765625 76.52023438 70.5078125 76.94921875 C66.05321243 78.81571006 62.40693185 79.136201 57.5625 79.125 C56.45003906 79.12757812 55.33757812 79.13015625 54.19140625 79.1328125 C51.33622508 79.01399223 48.77492054 78.65353269 46 78 C46 77.34 46 76.68 46 76 C44.02 75.67 42.04 75.34 40 75 C40 74.34 40 73.68 40 73 C39.01 73 38.02 73 37 73 C37 72.34 37 71.68 37 71 C36.13375 70.62875 36.13375 70.62875 35.25 70.25 C29.4430363 67.02390905 27.35456098 62.06685285 24.75 56.25 C24.38648438 55.45722656 24.02296875 54.66445312 23.6484375 53.84765625 C22.7576804 51.90205521 21.87775047 49.95150346 21 48 C20.82984375 48.65226562 20.6596875 49.30453125 20.484375 49.9765625 C18.99651801 55.34234462 17.36278586 59.48125651 14 64 C13.484375 64.94875 12.96875 65.8975 12.4375 66.875 C11.963125 67.57625 11.48875 68.2775 11 69 C10.01 69 9.02 69 8 69 C7.773125 69.598125 7.54625 70.19625 7.3125 70.8125 C4.62343314 75.2942781 -0.53533181 76.89764828 -5.328125 78.43359375 C-12.09326615 79.86772455 -19.28261352 79.54251097 -26 78 C-26 77.34 -26 76.68 -26 76 C-26.99 76 -27.98 76 -29 76 C-29.33 85.57 -29.66 95.14 -30 105 C-34.98208281 104.28827388 -37.85678208 103.87274289 -42.1875 102 C-45.12073273 100.74356015 -47.89852498 99.73831031 -51 99 C-51.06990607 90.47156498 -51.12301531 81.94325225 -51.15543652 73.41460037 C-51.17100714 69.45321692 -51.19208529 65.49203134 -51.22631836 61.53076172 C-51.25922247 57.69872885 -51.27691747 53.86688476 -51.28463173 50.03472137 C-51.29012014 48.58207991 -51.30083537 47.12944727 -51.31719017 45.67688751 C-51.56421565 22.80059738 -51.56421565 22.80059738 -44 15 C-43.505 14.175 -43.01 13.35 -42.5 12.5 C-38.10710129 5.17850215 -31.90200389 0.58827812 -23.546875 -1.66015625 C-15.52914005 -2.73000739 -7.71401368 -2.42008272 0 0 Z M-19 21 C-19 21.66 -19 22.32 -19 23 C-20.0828125 23.0309375 -20.0828125 23.0309375 -21.1875 23.0625 C-25.28395443 24.42798481 -26.99522125 27.27573794 -29 31 C-30.56913996 36.08009062 -30.47133596 40.56118495 -28.8125 45.625 C-26.66468513 49.62437941 -24.40456703 52.95802095 -20.125 54.8125 C-14.20970696 55.33443762 -10.05884068 55.40921872 -5 52 C-1.26592177 48.19546746 0.68976875 44.39383334 1.0859375 39.06640625 C0.93864053 35.52458361 0.02781496 32.38574339 -1 29 C-1.66 29 -2.32 29 -3 29 C-3.09023437 28.38640625 -3.18046875 27.7728125 -3.2734375 27.140625 C-3.81374403 24.91143684 -3.81374403 24.91143684 -5.6015625 23.734375 C-10.35381248 21.4224696 -13.71685468 20.55973789 -19 21 Z " fill="#FFCC00" transform="translate(245,41)"/>
<path d="M0 0 C0 7.59 0 15.18 0 23 C-2.97 23.33 -5.94 23.66 -9 24 C-9 24.66 -9 25.32 -9 26 C-9.99 26 -10.98 26 -12 26 C-12 26.66 -12 27.32 -12 28 C-12.99 28 -13.98 28 -15 28 C-15.35771484 28.88171875 -15.35771484 28.88171875 -15.72265625 29.78125 C-17.26259763 32.45613288 -18.94385473 33.69835153 -21.4375 35.5 C-23.91713865 37.29743164 -25.8028691 38.72623386 -27.59765625 41.21875 C-28.06042969 41.8065625 -28.52320313 42.394375 -29 43 C-29.99 43 -30.98 43 -32 43 C-32.226875 43.5775 -32.45375 44.155 -32.6875 44.75 C-34.32916107 47.56427613 -36.43559053 49.02737733 -39 51 C-39.495 51.99 -39.495 51.99 -40 53 C-40.99 53 -41.98 53 -43 53 C-43.268125 53.598125 -43.53625 54.19625 -43.8125 54.8125 C-45 57 -45 57 -46.54223633 58.33129883 C-48.48488812 60.55505114 -48.42309967 61.96228895 -48.51171875 64.88671875 C-48.56489258 66.2934082 -48.56489258 66.2934082 -48.61914062 67.72851562 C-48.64169922 68.70498047 -48.66425781 69.68144531 -48.6875 70.6875 C-48.72166016 71.67556641 -48.75582031 72.66363281 -48.79101562 73.68164062 C-48.87350538 76.12098053 -48.94265068 78.55996063 -49 81 C-52.24998112 81.02909763 -55.49992857 81.04683161 -58.75 81.0625 C-59.67039063 81.07087891 -60.59078125 81.07925781 -61.5390625 81.08789062 C-62.42851562 81.09111328 -63.31796875 81.09433594 -64.234375 81.09765625 C-65.05131836 81.10289307 -65.86826172 81.10812988 -66.70996094 81.11352539 C-69 81 -69 81 -71.14160156 80.43530273 C-73.13541106 79.78681396 -73.13541106 79.78681396 -75.5 80.9375 C-82.11371993 82.94523641 -89.29705735 82.53737217 -96 81 C-96 80.34 -96 79.68 -96 79 C-97.98 78.67 -99.96 78.34 -102 78 C-102 77.34 -102 76.68 -102 76 C-102.99 76 -103.98 76 -105 76 C-105 75.34 -105 74.68 -105 74 C-105.86625 73.62875 -105.86625 73.62875 -106.75 73.25 C-110.68429391 71.06428116 -113.37023103 68.2102365 -115 64 C-115 63.01 -115 62.02 -115 61 C-115.99 60.67 -116.98 60.34 -118 60 C-118.62109375 58.22265625 -118.62109375 58.22265625 -119 56 C-119.17660156 55.27683594 -119.35320312 54.55367187 -119.53515625 53.80859375 C-122.76205515 39.29950019 -120.97660734 27.54005646 -113 15 C-111.12387524 12.39150846 -109.28759434 10.28759434 -107 8 C-106.01 8 -105.02 8 -104 8 C-104 7.34 -104 6.68 -104 6 C-102.730447 5.35165346 -101.45930294 4.70642185 -100.1875 4.0625 C-99.47980469 3.70285156 -98.77210937 3.34320313 -98.04296875 2.97265625 C-93.58285915 0.84920063 -89.5272404 0.81661193 -84.6875 0.8125 C-83.94048828 0.80025391 -83.19347656 0.78800781 -82.42382812 0.77539062 C-77.88477563 0.76343526 -74.27500858 1.28048145 -70 3 C-70 2.34 -70 1.68 -70 1 C-63.07 1 -56.14 1 -49 1 C-47.92857143 23.36607143 -47.92857143 23.36607143 -52.5625 28.5 C-54.00054014 29.71699864 -55.47954986 30.88767069 -57 32 C-58.22965541 33.1869939 -59.45886063 34.37445444 -60.6875 35.5625 C-63.04480923 37.52512214 -63.79042399 37.97324562 -66.9375 38.375 C-67.9584375 38.189375 -67.9584375 38.189375 -69 38 C-69.66 36.02 -70.32 34.04 -71 32 C-71.66 32 -72.32 32 -73 32 C-73.495 30.515 -73.495 30.515 -74 29 C-79.58134056 25.31847947 -79.58134056 25.31847947 -86 24 C-91.98385763 25.52316376 -94.69866452 28.29014322 -97.90625 33.51953125 C-100.12605101 38.55372283 -99.65739454 43.83282879 -98 49 C-97.34 49.66 -96.68 50.32 -96 51 C-95.7525 51.845625 -95.505 52.69125 -95.25 53.5625 C-94.8375 54.366875 -94.425 55.17125 -94 56 C-91.29409604 56.95367452 -91.29409604 56.95367452 -88 57 C-86.081875 57.185625 -86.081875 57.185625 -84.125 57.375 C-77.95985805 57.29248376 -73.69917288 53.54111029 -69.3125 49.5625 C-67.57848284 47.64102153 -65.97708317 45.71268525 -64.375 43.6875 C-63.59125 42.800625 -62.8075 41.91375 -62 41 C-61.01 41 -60.02 41 -59 41 C-58.79375 40.443125 -58.5875 39.88625 -58.375 39.3125 C-56.82968723 36.71356489 -54.93229971 35.21252405 -52.578125 33.35546875 C-50.06319655 31.19536931 -48.1129176 28.54633659 -46 26 C-44.35360035 24.64172029 -42.68704193 23.30745749 -41 22 C-40.21625 21.21625 -39.4325 20.4325 -38.625 19.625 C-36.08043373 17.08043373 -33.43319236 14.78300046 -30.6796875 12.47265625 C-28.81522778 10.88917593 -28.81522778 10.88917593 -26.625 8.4375 C-18.42009202 0.81865688 -11.24459416 0 0 0 Z " fill="#FFCC00" transform="translate(194,38)"/>
<path d="M0 0 C0.67546875 0.35191406 1.3509375 0.70382813 2.046875 1.06640625 C6.83907494 3.79579832 11.28048892 7.09843062 14 12 C13.875 15.4375 13.875 15.4375 13 18 C12.01 18 11.02 18 10 18 C9.773125 18.598125 9.54625 19.19625 9.3125 19.8125 C7.66064339 22.56559434 5.76147267 23.44224619 3 25 C2.67 25.66 2.34 26.32 2 27 C-0.75 27.25 -0.75 27.25 -4 27 C-6.125 25.125 -6.125 25.125 -8 23 C-11.57162365 20.53681127 -14.74398291 20.49504882 -19 21 C-22.28731112 22.75106275 -25.30927864 24.61855728 -27 28 C-27.66 28 -28.32 28 -29 28 C-29.08165496 30.20770805 -29.13948488 32.41630425 -29.1875 34.625 C-29.22230469 35.85476562 -29.25710937 37.08453125 -29.29296875 38.3515625 C-28.97417902 42.32155726 -27.97795966 44.58047652 -26 48 C-25.60748047 49.15048828 -25.60748047 49.15048828 -25.20703125 50.32421875 C-24.04991363 52.32132327 -24.04991363 52.32132327 -21.13671875 52.64453125 C-19.99847656 52.69996094 -18.86023437 52.75539062 -17.6875 52.8125 C-15.99173828 52.91498047 -15.99173828 52.91498047 -14.26171875 53.01953125 C-11.30804089 53.00184456 -8.82773477 52.83956424 -6 52 C-5.505 51.01 -5.505 51.01 -5 50 C-4.505 49.01 -4.505 49.01 -4 48 C-1.375 47.25 -1.375 47.25 1 47 C1 47.66 1 48.32 1 49 C1.99 49 2.98 49 4 49 C5.35432675 50.31200404 6.68733482 51.64631404 8 53 C8.99 53.33 9.98 53.66 11 54 C13.47242395 55.73985389 13.94782915 56.77044824 14.625 59.75 C13.68571063 64.63430472 10.66577787 66.84037556 7 70 C5.7315625 71.175625 5.7315625 71.175625 4.4375 72.375 C1.60086713 74.26608858 -0.63308402 74.68679851 -4 75 C-4 75.66 -4 76.32 -4 77 C-14.04080962 79.23129103 -22.82573906 78.60411984 -32 74 C-32.886875 73.5875 -33.77375 73.175 -34.6875 72.75 C-43.45989972 66.11142724 -48.65673278 56.60819004 -51 46 C-52.40878591 32.01441805 -50.73992641 20.93152832 -42.24609375 9.67578125 C-32.2502109 -2.54140889 -14.53401548 -7.86732577 0 0 Z " fill="#FFCC00" transform="translate(61,42)"/>
<path d="M0 0 C0 37.62 0 75.24 0 114 C-6.93 114 -13.86 114 -21 114 C-21 78.36 -21 42.72 -21 6 C-10 3 -10 3 -7 3 C-7 2.34 -7 1.68 -7 1 C-4 0 -4 0 0 0 Z " fill="#FFCC00" transform="translate(437,5)"/>
<path d="M0 0 C0 11.88 0 23.76 0 36 C-6.6 36 -13.2 36 -20 36 C-20.18965377 32.62235667 -20.32794997 29.25540087 -20.4375 25.875 C-20.49615234 24.92367187 -20.55480469 23.97234375 -20.61523438 22.9921875 C-20.78515066 16.00134599 -20.78515066 16.00134599 -18.50512695 13.09350586 C-16.640625 11.51953125 -16.640625 11.51953125 -14.77832031 10.24145508 C-12.90796596 8.93575054 -11.71265984 7.60282831 -10.3125 5.8125 C-6.88479278 1.64366689 -5.49939164 0 0 0 Z " fill="#FFCC00" transform="translate(172,83)"/>
</svg>
